<svg width="89" height="90" viewBox="0 0 89 90" fill="none" xmlns="http://www.w3.org/2000/svg">
<mask id="path-1-inside-1_14_28" fill="white">
<path d="M33.9705 34.6164C39.4541 29.1654 48.3184 29.1919 53.7694 34.6755C59.2204 40.1592 59.194 49.0234 53.7103 54.4744C48.2267 59.9254 39.3624 59.899 33.9114 54.4153C28.4604 48.9317 28.4869 40.0674 33.9705 34.6164ZM36.0855 36.7441C31.7769 41.027 31.7561 47.9918 36.0391 52.3004C40.322 56.6089 47.2868 56.6297 51.5954 52.3468C55.9039 48.0639 55.9247 41.0991 51.6418 36.7905C47.3588 32.4819 40.3941 32.4612 36.0855 36.7441Z"/>
</mask>
<path d="M33.9705 34.6164C39.4541 29.1654 48.3184 29.1919 53.7694 34.6755C59.2204 40.1592 59.194 49.0234 53.7103 54.4744C48.2267 59.9254 39.3624 59.899 33.9114 54.4153C28.4604 48.9317 28.4869 40.0674 33.9705 34.6164ZM36.0855 36.7441C31.7769 41.027 31.7561 47.9918 36.0391 52.3004C40.322 56.6089 47.2868 56.6297 51.5954 52.3468C55.9039 48.0639 55.9247 41.0991 51.6418 36.7905C47.3588 32.4819 40.3941 32.4612 36.0855 36.7441Z" fill="#F5A201"/>
<path d="M33.9705 34.6164L174.969 176.459C102.115 248.88 -15.6529 248.528 -88.0733 175.674L53.7694 34.6755L195.612 -106.323C112.29 -190.144 -23.207 -190.549 -107.028 -107.226L33.9705 34.6164ZM53.7694 34.6755L-88.0733 175.674C-160.494 102.82 -160.142 -14.9478 -87.2884 -87.3683L53.7103 54.4744L194.709 196.317C278.53 112.995 278.935 -22.502 195.612 -106.323L53.7694 34.6755ZM53.7103 54.4744L-87.2884 -87.3683C-14.4345 -159.789 103.334 -159.437 175.754 -86.5834L33.9114 54.4153L-107.931 195.414C-24.6088 279.235 110.888 279.64 194.709 196.317L53.7103 54.4744ZM33.9114 54.4153L175.754 -86.5834C248.175 -13.7295 247.823 104.039 174.969 176.459L33.9705 34.6164L-107.028 -107.226C-190.849 -23.9038 -191.254 111.593 -107.931 195.414L33.9114 54.4153ZM36.0855 36.7441L-104.913 -105.099C-187.559 -22.9442 -187.958 110.653 -105.804 193.299L36.0391 52.3004L177.882 -88.6984C251.47 -14.6694 251.113 104.998 177.084 178.587L36.0855 36.7441ZM36.0391 52.3004L-105.804 193.299C-23.6493 275.945 109.948 276.344 192.594 194.189L51.5954 52.3468L-89.4034 -89.4959C-15.3744 -163.084 104.293 -162.727 177.882 -88.6984L36.0391 52.3004ZM51.5954 52.3468L192.594 194.189C275.24 112.035 275.639 -21.5621 193.484 -104.208L51.6418 36.7905L-90.2009 177.789C-163.789 103.76 -163.432 -15.9074 -89.4034 -89.4959L51.5954 52.3468ZM51.6418 36.7905L193.484 -104.208C111.33 -186.854 -22.2671 -187.253 -104.913 -105.099L36.0855 36.7441L177.084 178.587C103.055 252.175 -16.6124 251.818 -90.2009 177.789L51.6418 36.7905Z" fill="#FF0000" mask="url(#path-1-inside-1_14_28)"/>
<path d="M72.2839 73.7293L54.5629 52.217L50.8777 55.8802L72.2839 73.7293Z" fill="#F5A201"/>
<path d="M72.2839 73.7293L54.5629 52.217L50.8777 55.8802L72.2839 73.7293Z" fill="#F5A201"/>
<path d="M15.3598 15.046L36.766 32.8951L33.0808 36.5583L15.3598 15.046Z" fill="#F5A201"/>
<path d="M15.3598 15.046L36.766 32.8951L33.0808 36.5583L15.3598 15.046Z" fill="#F5A201"/>
<path d="M73.1625 16.2411L51.6502 33.9621L55.3135 37.6473L73.1625 16.2411Z" fill="#F5A201"/>
<path d="M73.1625 16.2411L51.6502 33.9621L55.3135 37.6473L73.1625 16.2411Z" fill="#F5A201"/>
<path d="M15.1843 73.8743L33.0334 52.4682L36.6966 56.1533L15.1843 73.8743Z" fill="#F5A201"/>
<path d="M15.1843 73.8743L33.0334 52.4682L36.6966 56.1533L15.1843 73.8743Z" fill="#F5A201"/>
<path d="M60.8953 16.3119L51.6755 25.4768L44.6045 25.4557M28.3685 16.2148L37.5335 25.4346L44.6045 25.4557M44.6045 25.4557L44.6298 16.9705M44.672 2.8284L44.6298 16.9705M44.6298 16.9705L36.1699 8.45991M44.6298 16.9705L53.1404 8.51055" stroke="#0F78AA" stroke-width="3" stroke-linecap="round"/>
<path d="M16.2149 60.7265L25.4346 51.5616L25.4557 44.4905M16.3119 28.1997L25.4768 37.4195L25.4557 44.4905M25.4557 44.4905L16.9705 44.4652M2.82842 44.423L16.9705 44.4652M16.9705 44.4652L8.51056 35.9547M16.9705 44.4652L8.45992 52.9252" stroke="#0F78AA" stroke-width="3" stroke-linecap="round"/>
<path d="M27.4905 73.4881L36.7103 64.3232L43.7813 64.3443M60.0173 73.5852L50.8524 64.3654L43.7813 64.3443M43.7813 64.3443L43.756 72.8296M43.7138 86.9716L43.756 72.8296M43.756 72.8296L52.216 81.3401M43.756 72.8296L35.2455 81.2895" stroke="#0F78AA" stroke-width="3" stroke-linecap="round"/>
<path d="M72.171 29.0736L62.9512 38.2385L62.9301 45.3095M72.0739 61.6003L62.909 52.3806L62.9301 45.3095M62.9301 45.3095L71.4154 45.3348M85.5574 45.377L71.4154 45.3348M71.4154 45.3348L79.8753 53.8454M71.4154 45.3348L79.9259 36.8749" stroke="#0F78AA" stroke-width="3" stroke-linecap="round"/>
</svg>
