<svg width="302" height="313" viewBox="0 0 302 313" fill="none" xmlns="http://www.w3.org/2000/svg">
<path d="M70.4797 193L68.0077 190.528V176.272L70.4797 173.8H81.2557L83.7277 176.272V190.528L81.2557 193H70.4797ZM73.5277 174.76V192.04H78.2077V174.76H73.5277ZM102.277 193H86.8448V192.04H88.7648V174.76H86.8448V173.8H102.277V179.32H101.197V174.76H94.2848V182.68H100.477V183.64H94.2848V192.04H101.197V187.48H102.277V193ZM123.461 176.032V182.368L120.989 184.84H113.789V192.04H115.709V193H106.349V192.04H108.269V174.76H106.349V173.8H121.229L123.461 176.032ZM113.789 183.88H117.941V174.76H113.789V183.88ZM150.928 174.76V192.04H152.608V193H143.008V192.04H145.408V174.904L140.68 193H135.04L129.832 174.808V192.04H132.232V193H126.832V192.04H128.752V174.76H126.832V173.8H135.184L140.104 190.984L144.592 173.8H152.608V174.76H150.928ZM158.435 193L155.963 190.528V176.272L158.435 173.8H169.211L171.683 176.272V190.528L169.211 193H158.435ZM161.483 174.76V192.04H166.163V174.76H161.483ZM192.632 176.032V182.368L190.16 184.84H182.96V192.04H184.88V193H175.52V192.04H177.44V174.76H175.52V173.8H190.4L192.632 176.032ZM182.96 183.88H187.112V174.76H182.96V183.88ZM198.956 193L196.484 190.528V176.272L198.956 173.8H209.732L212.204 176.272V190.528L209.732 193H198.956ZM202.004 174.76V192.04H206.684V174.76H202.004ZM235.721 173.8V174.76H233.801V192.04H235.721V193H226.601V192.04H228.281V183.64H222.761V192.04H224.441V193H215.321V192.04H217.241V174.76H215.321V173.8H224.441V174.76H222.761V182.68H228.281V174.76H226.601V173.8H235.721Z" fill="#013C58"/>
<mask id="path-2-inside-1_1_3" fill="white">
<path d="M140.971 112.616C146.454 107.165 155.318 107.192 160.769 112.676C166.22 118.159 166.194 127.023 160.71 132.474C155.227 137.925 146.362 137.899 140.911 132.415C135.46 126.932 135.487 118.067 140.971 112.616ZM143.085 114.744C138.777 119.027 138.756 125.992 143.039 130.3C147.322 134.609 154.287 134.63 158.595 130.347C162.904 126.064 162.925 119.099 158.642 114.791C154.359 110.482 147.394 110.461 143.085 114.744Z"/>
</mask>
<path d="M140.971 112.616C146.454 107.165 155.318 107.192 160.769 112.676C166.22 118.159 166.194 127.023 160.71 132.474C155.227 137.925 146.362 137.899 140.911 132.415C135.46 126.932 135.487 118.067 140.971 112.616ZM143.085 114.744C138.777 119.027 138.756 125.992 143.039 130.3C147.322 134.609 154.287 134.63 158.595 130.347C162.904 126.064 162.925 119.099 158.642 114.791C154.359 110.482 147.394 110.461 143.085 114.744Z" fill="#F5A201"/>
<path d="M140.971 112.616L281.969 254.459C209.115 326.88 91.3471 326.528 18.9267 253.674L160.769 112.676L302.612 -28.3232C219.29 -112.144 83.793 -112.549 -0.0282241 -29.2263L140.971 112.616ZM160.769 112.676L18.9267 253.674C-53.4937 180.82 -53.1423 63.0522 19.7116 -9.36828L160.71 132.474L301.709 274.317C385.53 190.995 385.935 55.498 302.612 -28.3232L160.769 112.676ZM160.71 132.474L19.7116 -9.36828C92.5655 -81.7887 210.334 -81.4373 282.754 -8.58338L140.911 132.415L-0.93128 273.414C82.3912 357.235 217.888 357.64 301.709 274.317L160.71 132.474ZM140.911 132.415L282.754 -8.58338C355.175 64.2706 354.823 182.039 281.969 254.459L140.971 112.616L-0.0282241 -29.2263C-83.8494 54.0962 -84.2537 189.593 -0.93128 273.414L140.911 132.415ZM143.085 114.744L2.08676 -27.0986C-80.5594 55.0558 -80.958 188.653 1.19636 271.299L143.039 130.3L284.882 -10.6984C358.47 63.3306 358.113 182.998 284.084 256.587L143.085 114.744ZM143.039 130.3L1.19636 271.299C83.3507 353.945 216.948 354.344 299.594 272.189L158.595 130.347L17.5966 -11.4959C91.6256 -85.0844 211.293 -84.7274 284.882 -10.6984L143.039 130.3ZM158.595 130.347L299.594 272.189C382.24 190.035 382.639 56.4379 300.484 -26.2082L158.642 114.791L16.7991 255.789C-56.7895 181.76 -56.4324 62.0926 17.5966 -11.4959L158.595 130.347ZM158.642 114.791L300.484 -26.2082C218.33 -108.854 84.7329 -109.253 2.08676 -27.0986L143.085 114.744L284.084 256.587C210.055 330.175 90.3876 329.818 16.7991 255.789L158.642 114.791Z" fill="#FF0000" mask="url(#path-2-inside-1_1_3)"/>
<path d="M179.284 151.729L161.563 130.217L157.878 133.88L179.284 151.729Z" fill="#F5A201"/>
<path d="M179.284 151.729L161.563 130.217L157.878 133.88L179.284 151.729Z" fill="#F5A201"/>
<path d="M122.36 93.046L143.766 110.895L140.081 114.558L122.36 93.046Z" fill="#F5A201"/>
<path d="M122.36 93.046L143.766 110.895L140.081 114.558L122.36 93.046Z" fill="#F5A201"/>
<path d="M180.163 94.2411L158.65 111.962L162.313 115.647L180.163 94.2411Z" fill="#F5A201"/>
<path d="M180.163 94.2411L158.65 111.962L162.313 115.647L180.163 94.2411Z" fill="#F5A201"/>
<path d="M122.184 151.874L140.033 130.468L143.697 134.153L122.184 151.874Z" fill="#F5A201"/>
<path d="M122.184 151.874L140.033 130.468L143.697 134.153L122.184 151.874Z" fill="#F5A201"/>
<path d="M167.895 94.3119L158.676 103.477L151.604 103.456M135.369 94.2148L144.533 103.435L151.604 103.456M151.604 103.456L151.63 94.9705M151.672 80.8284L151.63 94.9705M151.63 94.9705L143.17 86.4599M151.63 94.9705L160.14 86.5106" stroke="#0F78AA" stroke-width="3" stroke-linecap="round"/>
<path d="M123.215 138.727L132.435 129.562L132.456 122.491M123.312 106.2L132.477 115.42L132.456 122.491M132.456 122.491L123.97 122.465M109.828 122.423L123.97 122.465M123.97 122.465L115.511 113.955M123.97 122.465L115.46 130.925" stroke="#0F78AA" stroke-width="3" stroke-linecap="round"/>
<path d="M134.491 151.488L143.71 142.323L150.781 142.344M167.017 151.585L157.852 142.365L150.781 142.344M150.781 142.344L150.756 150.83M150.714 164.972L150.756 150.83M150.756 150.83L159.216 159.34M150.756 150.83L142.245 159.289" stroke="#0F78AA" stroke-width="3" stroke-linecap="round"/>
<path d="M179.171 107.074L169.951 116.238L169.93 123.31M179.074 139.6L169.909 130.381L169.93 123.31M169.93 123.31L178.415 123.335M192.557 123.377L178.415 123.335M178.415 123.335L186.875 131.845M178.415 123.335L186.926 114.875" stroke="#0F78AA" stroke-width="3" stroke-linecap="round"/>
<path d="M71 181.048H71.4V181.848H78.6V181.048H79V184.948H78.6V184.148H71.4V184.948H71V181.048Z" fill="#013C58"/>
</svg>
