<svg width="302" height="313" viewBox="0 0 302 313" fill="none" xmlns="http://www.w3.org/2000/svg">
<path d="M75.4797 186L73.0077 183.528V169.272L75.4797 166.8H86.2557L88.7277 169.272V183.528L86.2557 186H75.4797ZM78.5277 167.76V185.04H83.2077V167.76H78.5277ZM107.277 186H91.8448V185.04H93.7648V167.76H91.8448V166.8H107.277V172.32H106.197V167.76H99.2848V175.68H105.477V176.64H99.2848V185.04H106.197V180.48H107.277V186ZM128.461 169.032V175.368L125.989 177.84H118.789V185.04H120.709V186H111.349V185.04H113.269V167.76H111.349V166.8H126.229L128.461 169.032ZM118.789 176.88H122.941V167.76H118.789V176.88ZM155.928 167.76V185.04H157.608V186H148.008V185.04H150.408V167.904L145.68 186H140.04L134.832 167.808V185.04H137.232V186H131.832V185.04H133.752V167.76H131.832V166.8H140.184L145.104 183.984L149.592 166.8H157.608V167.76H155.928ZM163.435 186L160.963 183.528V169.272L163.435 166.8H174.211L176.683 169.272V183.528L174.211 186H163.435ZM166.483 167.76V185.04H171.163V167.76H166.483ZM197.632 169.032V175.368L195.16 177.84H187.96V185.04H189.88V186H180.52V185.04H182.44V167.76H180.52V166.8H195.4L197.632 169.032ZM187.96 176.88H192.112V167.76H187.96V176.88ZM203.956 186L201.484 183.528V169.272L203.956 166.8H214.732L217.204 169.272V183.528L214.732 186H203.956ZM207.004 167.76V185.04H211.684V167.76H207.004ZM240.721 166.8V167.76H238.801V185.04H240.721V186H231.601V185.04H233.281V176.64H227.761V185.04H229.441V186H220.321V185.04H222.241V167.76H220.321V166.8H229.441V167.76H227.761V175.68H233.281V167.76H231.601V166.8H240.721Z" fill="#013C58"/>
<mask id="path-2-inside-1_1_3" fill="white">
<path d="M151 109C158.732 109 165 115.268 165 123C165 130.732 158.732 137 151 137C143.268 137 137 130.732 137 123C137 115.268 143.268 109 151 109ZM151 112C144.925 112 140 116.925 140 123C140 129.075 144.925 134 151 134C157.075 134 162 129.075 162 123C162 116.925 157.075 112 151 112Z"/>
</mask>
<path d="M151 109C158.732 109 165 115.268 165 123C165 130.732 158.732 137 151 137C143.268 137 137 130.732 137 123C137 115.268 143.268 109 151 109ZM151 112C144.925 112 140 116.925 140 123C140 129.075 144.925 134 151 134C157.075 134 162 129.075 162 123C162 116.925 157.075 112 151 112Z" fill="#F5A201"/>
<path d="M151 109V309C48.275 309 -35 225.725 -35 123H165H365C365 4.81106 269.189 -91 151 -91V109ZM165 123H-35C-35 20.275 48.275 -63 151 -63V137V337C269.189 337 365 241.189 365 123H165ZM151 137V-63C253.725 -63 337 20.275 337 123H137H-63C-63 241.189 32.8111 337 151 337V137ZM137 123H337C337 225.725 253.725 309 151 309V109V-91C32.8111 -91 -63 4.81106 -63 123H137ZM151 112V-88C34.4679 -88 -60 6.46792 -60 123H140H340C340 227.382 255.382 312 151 312V112ZM140 123H-60C-60 239.532 34.4679 334 151 334V134V-66C255.382 -66 340 18.6182 340 123H140ZM151 134V334C267.532 334 362 239.532 362 123H162H-38C-38 18.6182 46.6182 -66 151 -66V134ZM162 123H362C362 6.46792 267.532 -88 151 -88V112V312C46.6182 312 -38 227.382 -38 123H162Z" fill="#FF0000" mask="url(#path-2-inside-1_1_3)"/>
<path d="M150.598 163.75L153.196 136H148L150.598 163.75Z" fill="#F5A201"/>
<path d="M150.598 163.75L153.196 136H148L150.598 163.75Z" fill="#F5A201"/>
<path d="M151.598 82L154.196 109.75H149L151.598 82Z" fill="#F5A201"/>
<path d="M151.598 82L154.196 109.75H149L151.598 82Z" fill="#F5A201"/>
<path d="M191.75 123.598L164 121V126.196L191.75 123.598Z" fill="#F5A201"/>
<path d="M191.75 123.598L164 121V126.196L191.75 123.598Z" fill="#F5A201"/>
<path d="M110 123.598L137.75 121V126.196L110 123.598Z" fill="#F5A201"/>
<path d="M110 123.598L137.75 121V126.196L110 123.598Z" fill="#F5A201"/>
<path d="M183 115H170L165 110M160 92V105L165 110M165 110L171 104M181 94L171 104M171 104V92M171 104H183" stroke="#0F78AA" stroke-width="3" stroke-linecap="round"/>
<path d="M120 115H133L138 110M143 92V105L138 110M138 110L132 104M122 94L132 104M132 104V92M132 104H120" stroke="#0F78AA" stroke-width="3" stroke-linecap="round"/>
<path d="M119 132H132L137 137M142 155V142L137 137M137 137L131 143M121 153L131 143M131 143V155M131 143H119" stroke="#0F78AA" stroke-width="3" stroke-linecap="round"/>
<path d="M182 132H169L164 137M159 155V142L164 137M164 137L170 143M180 153L170 143M170 143V155M170 143H182" stroke="#0F78AA" stroke-width="3" stroke-linecap="round"/>
<path d="M76 174.048H76.4V174.848H83.6V174.048H84V177.948H83.6V177.148H76.4V177.948H76V174.048Z" fill="#013C58"/>
</svg>
