<svg width="82" height="82" viewBox="0 0 82 82" fill="none" xmlns="http://www.w3.org/2000/svg">
<mask id="path-1-inside-1_14_29" fill="white">
<path d="M27.0038 40.7703C26.9946 33.0383 33.2552 26.7629 40.9872 26.7537C48.7191 26.7445 54.9946 33.0051 55.0037 40.7371C55.0129 48.4691 48.7523 54.7445 41.0203 54.7537C33.2883 54.7628 27.0129 48.5023 27.0038 40.7703ZM30.0038 40.7667C30.011 46.8418 34.9416 51.7609 41.0168 51.7537C47.0919 51.7465 52.0109 46.8158 52.0037 40.7407C51.9965 34.6655 47.0658 29.7465 40.9907 29.7537C34.9156 29.7609 29.9966 34.6916 30.0038 40.7667Z"/>
</mask>
<path d="M27.0038 40.7703C26.9946 33.0383 33.2552 26.7629 40.9872 26.7537C48.7191 26.7445 54.9946 33.0051 55.0037 40.7371C55.0129 48.4691 48.7523 54.7445 41.0203 54.7537C33.2883 54.7628 27.0129 48.5023 27.0038 40.7703ZM30.0038 40.7667C30.011 46.8418 34.9416 51.7609 41.0168 51.7537C47.0919 51.7465 52.0109 46.8158 52.0037 40.7407C51.9965 34.6655 47.0658 29.7465 40.9907 29.7537C34.9156 29.7609 29.9966 34.6916 30.0038 40.7667Z" fill="#F5A201"/>
<path d="M27.0038 40.7703L227.004 40.5334C227.125 143.258 143.949 226.632 41.224 226.754L40.9872 26.7537L40.7503 -173.246C-77.4386 -173.106 -173.136 -77.1817 -172.996 41.0072L27.0038 40.7703ZM40.9872 26.7537L41.224 226.754C-61.5008 226.875 -144.874 143.699 -144.996 40.974L55.0037 40.7371L255.004 40.5002C254.864 -77.6886 158.939 -173.386 40.7503 -173.246L40.9872 26.7537ZM55.0037 40.7371L-144.996 40.974C-145.118 -61.7509 -61.9414 -145.125 40.7834 -145.246L41.0203 54.7537L41.2572 254.754C159.446 254.614 255.144 158.689 255.004 40.5002L55.0037 40.7371ZM41.0203 54.7537L40.7834 -145.246C143.508 -145.368 226.882 -62.1915 227.004 40.5334L27.0038 40.7703L-172.996 41.0072C-172.856 159.196 -76.9316 254.894 41.2572 254.754L41.0203 54.7537ZM30.0038 40.7667L-169.996 41.0036C-169.858 157.536 -75.2783 251.892 41.2537 251.754L41.0168 51.7537L40.7799 -148.246C145.162 -148.37 229.88 -63.8519 230.004 40.5298L30.0038 40.7667ZM41.0168 51.7537L41.2537 251.754C157.786 251.616 252.142 157.036 252.004 40.5038L52.0037 40.7407L-147.996 40.9775C-148.12 -63.4042 -63.6019 -148.123 40.7799 -148.246L41.0168 51.7537ZM52.0037 40.7407L252.004 40.5038C251.866 -76.0282 157.286 -170.384 40.7538 -170.246L40.9907 29.7537L41.2276 229.754C-63.1541 229.877 -147.872 145.359 -147.996 40.9775L52.0037 40.7407ZM40.9907 29.7537L40.7538 -170.246C-75.7782 -170.108 -170.134 -75.5284 -169.996 41.0036L30.0038 40.7667L230.004 40.5298C230.127 144.912 145.609 229.63 41.2276 229.754L40.9907 29.7537Z" fill="#FF0000" mask="url(#path-1-inside-1_14_29)"/>
<path d="M81.7542 41.1075L54.0012 38.5423L54.0073 43.7384L81.7542 41.1075Z" fill="#F5A201"/>
<path d="M81.7542 41.1075L54.0012 38.5423L54.0073 43.7384L81.7542 41.1075Z" fill="#F5A201"/>
<path d="M0.00307972 40.2042L27.75 37.5733L27.7561 42.7694L0.00307972 40.2042Z" fill="#F5A201"/>
<path d="M0.00307972 40.2042L27.75 37.5733L27.7561 42.7694L0.00307972 40.2042Z" fill="#F5A201"/>
<path d="M41.5536 0.0030772L38.9884 27.7561L44.1845 27.75L41.5536 0.0030772Z" fill="#F5A201"/>
<path d="M41.5536 0.0030772L38.9884 27.7561L44.1845 27.75L41.5536 0.0030772Z" fill="#F5A201"/>
<path d="M41.6504 81.753L39.0195 54.0061L44.2156 54L41.6504 81.753Z" fill="#F5A201"/>
<path d="M41.6504 81.753L39.0195 54.0061L44.2156 54L41.6504 81.753Z" fill="#F5A201"/>
<path d="M32.9659 8.76324L32.9813 21.7632L27.9872 26.7692M9.99311 31.7905L22.9931 31.7751L27.9872 26.7692M27.9872 26.7692L21.9801 20.7763M11.9682 10.7881L21.9801 20.7763M21.9801 20.7763L9.98008 20.7905M21.9801 20.7763L21.9659 8.77627" stroke="#0F78AA" stroke-width="3" stroke-linecap="round"/>
<path d="M33.0405 71.7632L33.0251 58.7632L28.0191 53.7691M10.0132 48.7905L23.0132 48.7751L28.0191 53.7691M28.0191 53.7691L22.0263 59.7762M12.0381 69.7881L22.0263 59.7762M22.0263 59.7762L10.0263 59.7905M22.0263 59.7762L22.0405 71.7762" stroke="#0F78AA" stroke-width="3" stroke-linecap="round"/>
<path d="M50.0416 72.743L50.0262 59.7431L55.0203 54.7371M73.0144 49.7158L60.0144 49.7312L55.0203 54.7371M55.0203 54.7371L61.0274 60.73M71.0393 70.7182L61.0274 60.73M61.0274 60.73L73.0274 60.7158M61.0274 60.73L61.0416 72.73" stroke="#0F78AA" stroke-width="3" stroke-linecap="round"/>
<path d="M49.9671 9.74314L49.9825 22.7431L54.9884 27.7372M72.9943 32.7159L59.9943 32.7313L54.9884 27.7372M54.9884 27.7372L60.9813 21.7301M70.9694 11.7183L60.9813 21.7301M60.9813 21.7301L72.9812 21.7159M60.9813 21.7301L60.967 9.73011" stroke="#0F78AA" stroke-width="3" stroke-linecap="round"/>
</svg>
